HIERARCHY
ROOT __0
{
	OFFSET 0.0 0.0 0.0
	CHANNELS 6 Xposition Yposition Zposition Xrotation Yrotation Zrotation
	JOINT B_spine
	{
		OFFSET 0.000000 8.378193 -0.000042
		CHANNELS 6 Xposition Yposition Zposition Xrotation Yrotation Zrotation
		JOINT B_chest
		{
			OFFSET 0.000000 19.980549 -1.446528
			CHANNELS 6 Xposition Yposition Zposition Xrotation Yrotation Zrotation
			JOINT B_neck
			{
				OFFSET 0.000000 26.789227 -3.910883
				CHANNELS 6 Xposition Yposition Zposition Xrotation Yrotation Zrotation
				JOINT B_head
				{
					OFFSET 0.000000 7.395664 0.457887
					CHANNELS 6 Xposition Yposition Zposition Xrotation Yrotation Zrotation
					JOINT B_jaw
					{
						OFFSET 0.000000 0.000015 -0.000001
						CHANNELS 6 Xposition Yposition Zposition Xrotation Yrotation Zrotation
						End Site
						{
							OFFSET 0.000000 0.000782 0.009968
						}
					}
				}
			}
			JOINT B_shoulder_L
			{
				OFFSET -0.000000 18.838318 -3.287145
				CHANNELS 6 Xposition Yposition Zposition Xrotation Yrotation Zrotation
				JOINT B_upperArm_L
				{
					OFFSET 20.013100 -0.188515 -2.402215
					CHANNELS 6 Xposition Yposition Zposition Xrotation Yrotation Zrotation
					JOINT B_forearm_L
					{
						OFFSET 23.351597 -1.618710 0.537324
						CHANNELS 6 Xposition Yposition Zposition Xrotation Yrotation Zrotation
						JOINT B_hand_L
						{
							OFFSET 19.552296 -1.228146 0.466768
							CHANNELS 6 Xposition Yposition Zposition Xrotation Yrotation Zrotation
							JOINT B_indexFinger01_L
							{
								OFFSET 14.197121 0.114693 5.224828
								CHANNELS 6 Xposition Yposition Zposition Xrotation Yrotation Zrotation
								JOINT B_indexFinger02_L
								{
									OFFSET 5.096687 -0.322006 0.792609
									CHANNELS 6 Xposition Yposition Zposition Xrotation Yrotation Zrotation
									JOINT B_indexFinger03_L
									{
										OFFSET 3.728058 -0.655708 0.582659
										CHANNELS 6 Xposition Yposition Zposition Xrotation Yrotation Zrotation
										End Site
										{
											OFFSET 3.747520 -0.612564 0.498699
										}
									}
								}
							}
							JOINT B_middleFinger01_L
							{
								OFFSET 14.456993 0.622726 2.228930
								CHANNELS 6 Xposition Yposition Zposition Xrotation Yrotation Zrotation
								JOINT B_middleFinger02_L
								{
									OFFSET 5.364159 -0.114269 0.451116
									CHANNELS 6 Xposition Yposition Zposition Xrotation Yrotation Zrotation
									JOINT B_middleFinger03_L
									{
										OFFSET 3.878822 -0.719913 0.412559
										CHANNELS 6 Xposition Yposition Zposition Xrotation Yrotation Zrotation
										End Site
										{
											OFFSET 3.876266 -0.759529 0.362470
										}
									}
								}
							}
							JOINT B_pinky01_L
							{
								OFFSET 13.580017 -0.491467 -3.419242
								CHANNELS 6 Xposition Yposition Zposition Xrotation Yrotation Zrotation
								JOINT B_pinky02_L
								{
									OFFSET 4.234497 -0.090263 -0.078082
									CHANNELS 3 Xrotation Yrotation Zrotation
									JOINT B_pinky03_L
									{
										OFFSET 3.514511 -0.552479 0.098806
										CHANNELS 6 Xposition Yposition Zposition Xrotation Yrotation Zrotation
										End Site
										{
											OFFSET 3.485046 -0.698925 0.180805
										}
									}
								}
							}
							JOINT B_ringFinger01_L
							{
								OFFSET 14.299881 0.060757 -0.556457
								CHANNELS 6 Xposition Yposition Zposition Xrotation Yrotation Zrotation
								JOINT B_ringFinger02_L
								{
									OFFSET 4.993225 -0.107780 0.072651
									CHANNELS 6 Xposition Yposition Zposition Xrotation Yrotation Zrotation
									JOINT B_ringFinger03_L
									{
										OFFSET 3.778389 -0.597057 0.268810
										CHANNELS 6 Xposition Yposition Zposition Xrotation Yrotation Zrotation
										End Site
										{
											OFFSET 3.753319 -0.768082 0.166223
										}
									}
								}
							}
							JOINT B_thumb01_L
							{
								OFFSET 4.907181 -1.257126 4.950770
								CHANNELS 6 Xposition Yposition Zposition Xrotation Yrotation Zrotation
								JOINT B_thumb02_L
								{
									OFFSET 3.970413 -1.738136 2.899369
									CHANNELS 6 Xposition Yposition Zposition Xrotation Yrotation Zrotation
									JOINT B_thumb03_L
									{
										OFFSET 3.139023 -1.269691 1.917772
										CHANNELS 6 Xposition Yposition Zposition Xrotation Yrotation Zrotation
										End Site
										{
											OFFSET 2.863029 -1.283310 2.302091
										}
									}
								}
							}
						}
					}
				}
			}
			JOINT B_shoulder_R
			{
				OFFSET 0.000000 18.838318 -3.287145
				CHANNELS 6 Xposition Yposition Zposition Xrotation Yrotation Zrotation
				JOINT B_upperArm_R
				{
					OFFSET -20.013100 -0.188515 -2.402215
					CHANNELS 6 Xposition Yposition Zposition Xrotation Yrotation Zrotation
					JOINT B_forearm_R
					{
						OFFSET -23.351696 -1.619377 0.529252
						CHANNELS 6 Xposition Yposition Zposition Xrotation Yrotation Zrotation
						JOINT B_hand_R
						{
							OFFSET -19.552219 -1.227554 0.474845
							CHANNELS 3 Xrotation Yrotation Zrotation
							JOINT B_indexFinger01_R
							{
								OFFSET -14.197105 0.114769 5.224829
								CHANNELS 6 Xposition Yposition Zposition Xrotation Yrotation Zrotation
								JOINT B_indexFinger02_R
								{
									OFFSET -5.096695 -0.322025 0.792607
									CHANNELS 6 Xposition Yposition Zposition Xrotation Yrotation Zrotation
									JOINT B_indexFinger03_R
									{
										OFFSET -3.728096 -0.655659 0.582654
										CHANNELS 6 Xposition Yposition Zposition Xrotation Yrotation Zrotation
										End Site
										{
											OFFSET -3.747551 -0.612572 0.498704
										}
									}
								}
							}
							JOINT B_middleFinger01_R
							{
								OFFSET -14.456993 0.622879 2.228918
								CHANNELS 6 Xposition Yposition Zposition Xrotation Yrotation Zrotation
								JOINT B_middleFinger02_R
								{
									OFFSET -5.364197 -0.114338 0.451122
									CHANNELS 6 Xposition Yposition Zposition Xrotation Yrotation Zrotation
									JOINT B_middleFinger03_R
									{
										OFFSET -3.878792 -0.720070 0.412572
										CHANNELS 6 Xposition Yposition Zposition Xrotation Yrotation Zrotation
										End Site
										{
											OFFSET -3.876274 -0.759541 0.362473
										}
									}
								}
							}
							JOINT B_pinky01_R
							{
								OFFSET -13.580002 -0.491497 -3.419239
								CHANNELS 6 Xposition Yposition Zposition Xrotation Yrotation Zrotation
								JOINT B_pinky02_R
								{
									OFFSET -4.234398 -0.090225 -0.078083
									CHANNELS 3 Xrotation Yrotation Zrotation
									JOINT B_pinky03_R
									{
										OFFSET -3.514503 -0.552494 0.098809
										CHANNELS 6 Xposition Yposition Zposition Xrotation Yrotation Zrotation
										End Site
										{
											OFFSET -3.485046 -0.698902 0.180804
										}
									}
								}
							}
							JOINT B_ringFinger01_R
							{
								OFFSET -14.299896 0.060863 -0.556464
								CHANNELS 6 Xposition Yposition Zposition Xrotation Yrotation Zrotation
								JOINT B_ringFinger02_R
								{
									OFFSET -4.993202 -0.107822 0.072652
									CHANNELS 6 Xposition Yposition Zposition Xrotation Yrotation Zrotation
									JOINT B_ringFinger03_R
									{
										OFFSET -3.778404 -0.597164 0.268818
										CHANNELS 6 Xposition Yposition Zposition Xrotation Yrotation Zrotation
										End Site
										{
											OFFSET -3.753349 -0.768085 0.166225
										}
									}
								}
							}
							JOINT B_thumb01_R
							{
								OFFSET -4.907188 -1.257080 4.950771
								CHANNELS 6 Xposition Yposition Zposition Xrotation Yrotation Zrotation
								JOINT B_thumb02_R
								{
									OFFSET -3.970398 -1.738106 2.899386
									CHANNELS 6 Xposition Yposition Zposition Xrotation Yrotation Zrotation
									JOINT B_thumb03_R
									{
										OFFSET -3.138870 -1.269783 1.917762
										CHANNELS 6 Xposition Yposition Zposition Xrotation Yrotation Zrotation
										End Site
										{
											OFFSET -2.862953 -1.283279 2.302032
										}
									}
								}
							}
						}
					}
				}
			}
		}
	}
	JOINT B_thigh_L
	{
		OFFSET 8.695102 -5.449859 0.093442
		CHANNELS 6 Xposition Yposition Zposition Xrotation Yrotation Zrotation
		JOINT B_shin_L
		{
			OFFSET 3.147997 -40.844475 4.601263
			CHANNELS 6 Xposition Yposition Zposition Xrotation Yrotation Zrotation
			JOINT B_foot_L
			{
				OFFSET -0.017695 -38.798004 -0.869704
				CHANNELS 6 Xposition Yposition Zposition Xrotation Yrotation Zrotation
				JOINT B_toe_L
				{
					OFFSET -0.000001 -8.586090 15.528839
					CHANNELS 6 Xposition Yposition Zposition Xrotation Yrotation Zrotation
					End Site
					{
						OFFSET 0.000035 1.387527 17.690113
					}
				}
			}
		}
	}
	JOINT B_thigh_R
	{
		OFFSET -8.695100 -5.449996 0.093453
		CHANNELS 6 Xposition Yposition Zposition Xrotation Yrotation Zrotation
		JOINT B_shin_R
		{
			OFFSET -3.148101 -40.844360 4.601152
			CHANNELS 6 Xposition Yposition Zposition Xrotation Yrotation Zrotation
			JOINT B_foot_R
			{
				OFFSET 0.017752 -38.797974 -0.869578
				CHANNELS 6 Xposition Yposition Zposition Xrotation Yrotation Zrotation
				JOINT B_toe_R
				{
					OFFSET -0.000007 -8.586243 15.529108
					CHANNELS 6 Xposition Yposition Zposition Xrotation Yrotation Zrotation
					End Site
					{
						OFFSET 0.000281 1.387665 17.690542
					}
				}
			}
		}
	}
}
MOTION
Frames: 4
Frame Time: 0.016667
0.1534073 0.9286558 0.1534073 3.67807 171.0457 6.838070000000002 -0.000000 8.378147 -0.000038 1.537535 1.414016 1.658023 0.000000 19.980581 -1.446530 -4.266423 0.393781 -0.105417 -0.000000 26.789211 -3.910884 -0.293467 6.718749 -1.497851 0.000000 7.395627 0.457892 -7.196480 32.777900 -0.642353 -0.000000 0.000021 -0.000003 10.264923 0.000738 -0.000855 -0.000002 18.838335 -3.287147 2.755251 -3.494499 18.458803 20.013105 -0.188542 -2.402216 2.146029 -3.105270 -2.906364 23.351606 -1.618713 0.537326 176.447528 -157.747768 181.611452 19.552292 -1.228147 0.466764 -10.719175 19.972737 22.264141 14.197109 0.114704 5.224837 -8.413747 -1.664881 13.856814 5.096667 -0.322025 0.792606 -3.557880 1.351325 -7.773568 3.728108 -0.655719 0.582655 -3.346292 1.506776 -8.756439 14.456988 0.622797 2.228928 -4.689695 -3.078868 8.741566 5.364212 -0.114292 0.451125 -1.764856 0.226788 -13.020426 3.878803 -0.719933 0.412559 -1.626227 0.159295 -13.796367 13.579993 -0.491495 -3.419239 -0.582078 -1.406389 -4.437692 -0.701746 -1.528120 -32.499403 3.514494 -0.552381 0.098795 -0.582906 -1.698960 -23.933111 14.299883 0.060763 -0.556451 -1.836113 -4.198608 1.831001 4.993185 -0.107712 0.072645 -0.154690 -0.591352 -24.362327 3.778409 -0.597117 0.268816 -0.371926 -1.189486 -19.523944 4.907187 -1.257137 4.950771 -5.221056 -4.181981 -5.421627 3.970393 -1.738105 2.899390 0.297501 7.875193 0.589441 3.139022 -1.269707 1.917774 -0.662473 4.496529 0.052710 0.000001 18.838333 -3.287147 2.743665 4.342100 -17.598589 -20.013109 -0.188539 -2.402215 -25.216194 9.182036 11.957690 -23.351704 -1.619367 0.529253 -6.532360 24.463009 -10.133305 8.871051 -2.308384 -37.860958 -14.197114 0.114760 5.224837 -9.812388 -3.804020 -24.453846 -5.096687 -0.322023 0.792606 -5.377454 -2.722045 -5.624394 -3.728139 -0.655761 0.582664 -3.274031 -1.434602 9.354734 -14.456994 0.622863 2.228924 -4.548740 -3.055898 -17.165565 -5.364188 -0.114271 0.451114 -3.748602 -2.296964 -9.888238 -3.878810 -0.720060 0.412567 -1.780508 -0.398160 11.539545 -13.580004 -0.491512 -3.419233 1.482383 -1.427633 -15.297619 -0.460682 -1.242572 -1.431252 -3.514501 -0.552464 0.098811 -0.477319 1.073245 16.295884 -14.299919 0.060827 -0.556461 -0.149956 -1.922823 -15.694134 -4.993224 -0.107859 0.072660 -1.553379 -2.305359 -7.420624 -3.778403 -0.597137 0.268814 -0.535997 0.665808 14.176509 -4.907197 -1.257079 4.950765 -20.765501 1.288713 -9.074103 -3.970400 -1.738107 2.899393 1.883410 -13.648460 -1.384007 -3.138906 -1.269739 1.917755 0.805216 -9.700274 -0.856903 8.695096 -5.449880 0.093444 -7.759846 10.995201 14.571852 3.154875 -40.933666 4.611317 20.613873 7.350653 -1.188548 -0.017734 -38.882782 -0.871611 -5.990723 3.951350 -11.873152 -0.000004 -8.586109 15.528833 -9.286493 0.000001 0.000004 -8.695099 -5.449985 0.093454 -5.083322 -3.545076 -5.219893 -3.163916 -41.049553 4.624269 16.678938 -7.979650 -0.930032 0.017879 -38.992928 -0.873950 -0.862770 -8.175512 11.658941 -0.000006 -8.586135 15.529179 -12.198430 -0.000004 -0.000026 
0.1518039 0.9185452 0.1518039 3.86516 171.502 7.16919 -0.000000 8.378148 -0.000038 1.517207 1.102382 2.122707 0.000000 19.980577 -1.446530 -3.920504 0.318073 -0.227287 -0.000000 26.789209 -3.910882 -0.613870 6.754899 -1.414489 0.000000 7.395633 0.457893 -6.396380 32.928332 -0.904571 -0.000000 0.000025 -0.000003 10.264923 0.000735 -0.000855 0.000001 18.838345 -3.287144 2.674587 -2.575966 18.848863 20.013103 -0.188547 -2.402216 2.763762 -2.977876 -4.181602 23.351606 -1.618718 0.537326 176.524368 -153.362718 181.337411 19.552290 -1.228157 0.466769 -11.561469 21.563966 25.619707 14.197117 0.114715 5.224839 -7.411941 0.238610 11.689202 5.096684 -0.322026 0.792606 -4.282965 1.979663 -2.147223 3.728106 -0.655713 0.582656 -3.651335 1.795692 -6.293740 14.456989 0.622807 2.228927 -4.045373 -0.944046 7.810137 5.364187 -0.114292 0.451120 -2.085414 0.703969 -8.500693 3.878805 -0.719928 0.412565 -1.737967 0.334284 -12.148960 13.579978 -0.491483 -3.419240 0.339610 0.614800 -1.697462 -0.710909 -1.550707 -32.792725 3.514487 -0.552395 0.098801 -0.577290 -1.675078 -23.638059 14.299881 0.060757 -0.556455 -1.199227 -2.208617 2.644542 4.993199 -0.107720 0.072651 -0.188838 -0.411871 -22.581948 3.778406 -0.597116 0.268817 -0.396648 -1.098387 -18.604459 4.907191 -1.257131 4.950770 -5.221050 -4.181973 -5.421633 3.970391 -1.738102 2.899387 0.444588 8.401385 0.668157 3.139023 -1.269723 1.917768 -0.585833 4.762524 0.096984 -0.000000 18.838339 -3.287144 2.571229 3.219244 -17.511581 -20.013105 -0.188540 -2.402216 -26.419308 10.218147 13.184294 -23.351702 -1.619371 0.529253 -7.075033 26.243369 -10.574316 8.752035 -1.842258 -37.797970 -14.197128 0.114761 5.224838 -9.459465 -2.875069 -22.433075 -5.096695 -0.322030 0.792606 -5.076935 -2.539225 -3.556853 -3.728121 -0.655752 0.582656 -3.224660 -1.384351 9.767328 -14.457013 0.622854 2.228931 -4.337806 -2.300623 -14.950009 -5.364179 -0.114281 0.451114 -3.575918 -2.174263 -8.202024 -3.878805 -0.720067 0.412579 -1.770595 -0.383488 11.680701 -13.580005 -0.491511 -3.419232 1.238041 -0.849089 -12.770455 -0.455252 -1.216787 -1.113850 -3.514501 -0.552468 0.098801 -0.473670 1.036457 15.850986 -14.299916 0.060839 -0.556455 -0.231259 -1.314150 -13.145549 -4.993207 -0.107850 0.072655 -1.438158 -2.172030 -5.699390 -3.778389 -0.597131 0.268821 -0.542592 0.648310 13.994117 -4.907206 -1.257075 4.950769 -20.760563 1.372434 -9.026841 -3.970400 -1.738114 2.899390 1.868219 -13.592378 -1.376999 -3.138905 -1.269749 1.917762 0.786026 -9.631061 -0.847109 8.695101 -5.449881 0.093445 -8.885332 11.633041 15.334791 3.152904 -40.908092 4.608433 21.778412 6.583138 -1.662453 -0.017727 -38.858444 -0.871067 -12.301534 3.392825 -11.957792 -0.000002 -8.586115 15.528842 -5.170945 0.000000 0.000004 -8.695100 -5.449990 0.093454 -6.097904 -5.728171 -5.789760 -3.160506 -41.005325 4.619285 18.008012 -7.746188 -0.071873 0.017856 -38.950871 -0.873004 -6.209414 -6.633218 12.049768 -0.000003 -8.586121 15.529181 -8.860284 0.000002 -0.000018 
0.1499839 0.9088351 0.1499839 3.926924 171.8286 7.608239999999995 -0.000000 8.378148 -0.000038 1.962813 0.889198 2.604129 0.000000 19.980577 -1.446529 -4.183359 0.317870 -0.507630 0.000000 26.789215 -3.910883 -1.297642 6.801158 -1.358886 0.000001 7.395633 0.457894 -5.570409 33.163079 -1.055510 -0.000001 0.000025 -0.000003 10.264921 0.000740 -0.000857 -0.000000 18.838341 -3.287146 2.411280 -1.810459 17.795402 20.013105 -0.188544 -2.402217 2.549131 -1.423592 -4.097630 23.351606 -1.618710 0.537327 176.821822 -146.444816 181.622653 19.552296 -1.228143 0.466766 -11.027597 21.792052 28.743301 14.197135 0.114705 5.224829 -6.179446 2.005203 8.728072 5.096679 -0.322022 0.792607 -4.860611 2.398157 2.040490 3.728106 -0.655722 0.582659 -3.972175 2.074227 -3.801649 14.457003 0.622798 2.228920 -3.157968 1.401630 5.797628 5.364202 -0.114279 0.451120 -2.433454 1.130354 -4.128433 3.878796 -0.719936 0.412563 -1.891544 0.558036 -9.994916 13.580006 -0.491493 -3.419244 1.337645 3.481550 -1.256529 -0.658066 -1.415557 -31.046874 3.514492 -0.552380 0.098798 -0.557487 -1.585894 -22.539281 14.299891 0.060753 -0.556459 -0.440447 0.361737 1.803794 4.993200 -0.107714 0.072649 -0.263647 -0.094246 -19.401648 3.778396 -0.597117 0.268817 -0.443308 -0.940310 -16.998961 4.907198 -1.257147 4.950766 -5.221050 -4.181974 -5.421632 3.970399 -1.738109 2.899390 0.616298 9.018260 0.758793 3.139009 -1.269719 1.917771 -0.496263 5.074288 0.148416 0.000001 18.838343 -3.287147 2.190386 2.212558 -15.826399 -20.013109 -0.188549 -2.402216 -29.176714 10.568073 15.676814 -23.351698 -1.619363 0.529254 -8.167999 31.436772 -12.524078 9.375218 -0.412358 -38.293001 -14.197118 0.114757 5.224839 -9.038772 -1.805422 -19.944099 -5.096691 -0.322025 0.792607 -4.757240 -2.327153 -1.303540 -3.728140 -0.655759 0.582667 -3.203343 -1.362527 9.945881 -14.457014 0.622858 2.228927 -4.117277 -1.439068 -12.332078 -5.364195 -0.114282 0.451123 -3.355016 -2.005682 -5.990044 -3.878803 -0.720076 0.412571 -1.772610 -0.386562 11.651438 -13.580020 -0.491516 -3.419235 0.919753 -0.118375 -10.061518 -0.441465 -1.146348 -0.249591 -3.514506 -0.552475 0.098809 -0.470836 1.003854 15.457770 -14.299921 0.060834 -0.556454 -0.392448 -0.529701 -10.507636 -4.993204 -0.107857 0.072660 -1.297509 -1.997415 -3.509751 -3.778415 -0.597123 0.268826 -0.550315 0.627213 13.775371 -4.907202 -1.257077 4.950771 -20.762940 1.499208 -8.964219 -3.970397 -1.738117 2.899386 1.847703 -13.516325 -1.367467 -3.138881 -1.269743 1.917753 0.762438 -9.545719 -0.834930 8.695098 -5.449881 0.093445 -10.894570 11.258528 16.150182 3.150228 -40.873398 4.604526 23.888127 4.746485 -1.661324 -0.017711 -38.825504 -0.870330 -15.567072 2.059996 -11.883944 -0.000001 -8.586108 15.528825 -2.293610 -0.000005 0.000006 -8.695099 -5.449986 0.093452 -8.259688 -7.149829 -6.599777 -3.154743 -40.930584 4.610867 20.773325 -6.739612 0.732167 0.017825 -38.879864 -0.871413 -10.696252 -4.946790 12.323546 -0.000001 -8.586092 15.529174 -6.666410 0.000004 -0.000022 
0.1483114 0.89829 0.1483114 3.984581 171.8671 7.727469999999997 -0.000000 8.378148 -0.000038 3.000226 0.825017 2.976333 -0.000000 19.980579 -1.446530 -4.803787 0.381660 -0.833389 0.000000 26.789219 -3.910883 -2.116614 6.859234 -1.354050 0.000000 7.395624 0.457892 -4.880356 33.522886 -1.187430 -0.000001 0.000025 -0.000002 10.264921 0.000736 -0.000857 -0.000001 18.838343 -3.287146 1.979369 -1.311218 15.101982 20.013102 -0.188543 -2.402217 0.112032 0.959867 -4.511324 23.351601 -1.618718 0.537330 178.242174 -137.586511 184.687168 19.552299 -1.228152 0.466763 -7.281591 20.513884 30.569847 14.197114 0.114703 5.224832 -4.849736 4.391087 6.497681 5.096675 -0.322028 0.792610 -5.076157 2.538721 3.551947 3.728123 -0.655720 0.582659 -4.244167 2.292738 -1.755241 14.456989 0.622803 2.228927 -2.096282 4.146989 3.955348 5.364181 -0.114288 0.451117 -2.712337 1.430291 -0.876780 3.878804 -0.719924 0.412561 -2.056276 0.779551 -7.803180 13.579990 -0.491486 -3.419241 2.503964 6.904386 -2.399182 -0.524446 -1.000869 -25.804849 3.514495 -0.552386 0.098798 -0.528124 -1.435569 -20.697194 14.299892 0.060753 -0.556458 0.631398 3.642419 0.226699 4.993164 -0.107711 0.072648 -0.407165 0.369159 -14.672059 3.778401 -0.597121 0.268821 -0.509192 -0.740769 -14.951873 4.907191 -1.257141 4.950768 -5.221055 -4.181975 -5.421634 3.970389 -1.738119 2.899381 0.748258 9.494229 0.827523 3.139019 -1.269720 1.917774 -0.427334 5.314799 0.187768 0.000000 18.838346 -3.287146 1.678211 1.693009 -12.552495 -20.013113 -0.188544 -2.402217 -31.496547 10.358485 18.554074 -23.351700 -1.619366 0.529258 -9.168044 39.856917 -15.370717 9.250825 1.375955 -39.106156 -14.197129 0.114762 5.224835 -8.576756 -0.919029 -17.257229 -5.096686 -0.322027 0.792604 -4.400112 -2.069251 1.281970 -3.728119 -0.655752 0.582664 -3.207667 -1.366929 9.910144 -14.457008 0.622856 2.228923 -3.873507 -0.759610 -9.590693 -5.364180 -0.114280 0.451119 -3.075812 -1.772123 -3.094093 -3.878807 -0.720065 0.412565 -1.778196 -0.394659 11.572862 -13.580008 -0.491518 -3.419237 0.590312 0.517630 -7.389899 -0.418193 -1.015858 1.342907 -3.514505 -0.552467 0.098808 -0.469251 0.985698 15.238444 -14.299918 0.060827 -0.556460 -0.500850 -0.081037 -7.947859 -4.993204 -0.107857 0.072656 -1.139273 -1.782974 -0.905844 -3.778385 -0.597140 0.268823 -0.555048 0.614416 13.641970 -4.907217 -1.257073 4.950770 -20.760821 1.607572 -8.906752 -3.970394 -1.738111 2.899386 1.831309 -13.455710 -1.359865 -3.138892 -1.269743 1.917758 0.746177 -9.487025 -0.826489 8.695105 -5.449877 0.093444 -13.018598 10.031551 16.840270 3.148174 -40.846684 4.601514 27.090707 2.198801 -1.336295 -0.017701 -38.800102 -0.869754 -17.618340 0.529404 -11.605158 0.000001 -8.586110 15.528833 -1.126075 0.000000 0.000006 -8.695106 -5.449986 0.093452 -10.983182 -7.500579 -7.530360 -3.149592 -40.863716 4.603331 24.762263 -5.278990 1.220910 0.017795 -38.816319 -0.869990 -14.258358 -3.604376 12.218847 -0.000004 -8.586102 15.529177 -5.687138 0.000008 -0.000021 
